<svg width="64" height="74" viewBox="0 0 64 74" fill="none" xmlns="http://www.w3.org/2000/svg">
<path d="M59.625 31.2344L10.125 1.98438C8.8125 1.14062 7.35938 0.859375 5.76562 1.14062C4.17188 1.32812 2.8125 2.03125 1.6875 3.25C0.5625 4.375 0 5.875 0 7.75V66.25C0 67.9375 0.515625 69.3906 1.54688 70.6094C2.67188 71.8281 4.03125 72.5781 5.625 72.8594C7.21875 73.1406 8.71875 72.8594 10.125 72.0156L59.625 42.7656C61.125 41.9219 62.1094 40.75 62.5781 39.25C63.1406 37.75 63.1406 36.25 62.5781 34.75C62.1094 33.25 61.125 32.0781 59.625 31.2344Z" fill="white"/>
</svg>
